<svg viewBox="0 0 32 32" xmlns="http://www.w3.org/2000/svg"
    ><path fill="none" stroke="#591D73" stroke-width=".5" d="M19.49 13.78v4.3q0 3.25-.32 4.34a5 5 0 0 1-.93 1.84 5.7 5.7 0 0 1-4.73 2.11q-2.85 0-4.61-1.9a7 7 0 0 1-1.75-5q0-2.76 1.62-4.67a5 5 0 0 1 4-1.91q1.5 0 2.5.87 1 .88 1 2.17 0 1.2-.86 1.9-.43.35-1 .57l-.75.25q-1.44.42-1.43 1.43 0 1.1.96 1.1.93 0 .93-1.6v-.68q2.5-.83 2.5-2.94 0-2.43-2.5-3.25V8.06q0-1.44-.43-2.08l-.36-.53a2.4 2.4 0 0 1-.43-1.33q0-2.25 3.83-2.25h4.08q2.02 0 2.86.25.65.18 1.26.6a3.2 3.2 0 0 1 1.18 2.55q0 .96-.58 1.59-.56.63-1.4.63-.42 0-1.17-.26l-.65-.21a9 9 0 0 0-2.46-.21h-.36v2.14h2.79q3.07 0 3.07 2.4 0 1.29-.73 1.86t-2.34.57z"/>
    <path fill="#FFDC00" d="M19.49 13.78v4.3q0 3.25-.32 4.34a5 5 0 0 1-.93 1.84 5.7 5.7 0 0 1-4.73 2.11q-2.85 0-4.61-1.9a7 7 0 0 1-1.75-5q0-2.76 1.62-4.67a5 5 0 0 1 4-1.91q1.5 0 2.5.87 1 .88 1 2.17 0 1.2-.86 1.9-.43.35-1 .57l-.75.25q-1.44.42-1.43 1.43 0 1.1.96 1.1.93 0 .93-1.6v-.68q2.5-.83 2.5-2.94 0-2.43-2.5-3.25V8.06q0-1.44-.43-2.08l-.36-.53a2.4 2.4 0 0 1-.43-1.33q0-2.25 3.83-2.25h4.08q2.02 0 2.86.25.65.18 1.26.6a3.2 3.2 0 0 1 1.18 2.55q0 .96-.58 1.59-.56.63-1.4.63-.42 0-1.17-.26l-.65-.21a9 9 0 0 0-2.46-.21h-.36v2.14h2.79q3.07 0 3.07 2.4 0 1.29-.73 1.86t-2.34.57z"/>
    <path fill="none" stroke="#591D73" stroke-width=".5" d="M19.85 18v1.47q0 1.55-.15 2.43-.18 1.16-.93 3.15a13 13 0 0 1-1.6 3.26q-1.65 2.25-4.94 2.25-2.97 0-4.85-1.98A7.2 7.2 0 0 1 5.5 23.4q0-1.5.43-3.04.32-1.16 1.04-3.08.6-1.65 1.36-2.58a6 6 0 0 1 4.11-2.22v-.64q0-1.25-.5-2.07l-.32-.54a2.5 2.5 0 0 1-.4-1.32q0-.44.36-1.61l.4-1.3q.5-1.67 1-2.35.86-1.22 3.68-1.22h4.15q2.15 0 3.19.32 2.5.79 2.5 3.44 0 .78-.68 2.79l-.57 1.68q.5.78.5 1.75t-.5 2.29l-.61 1.61q-.21.6-.57 1.47-.65 1.2-2.72 1.21zm-.36-4.22h2.79q1.6 0 2.34-.57t.73-1.86q0-2.4-3.07-2.4h-2.8V6.81h.37q1.82 0 2.46.21l.65.22q.75.25 1.18.25.82 0 1.4-.63.57-.63.57-1.6 0-1.53-1.18-2.53-.61-.44-1.26-.61-.85-.25-2.86-.25h-4.08q-3.83 0-3.83 2.25 0 .69.43 1.33l.36.53q.43.64.43 2.08v4.65q2.5.82 2.5 3.25 0 2.11-2.5 2.94v.68q0 1.6-.93 1.6-.96 0-.96-1.1 0-1 1.43-1.43l.75-.25q.57-.22 1-.57.86-.7.86-1.9 0-1.29-1-2.17a3.7 3.7 0 0 0-2.5-.87q-2.37 0-4 1.91a7 7 0 0 0-1.62 4.67 7 7 0 0 0 1.75 5 6 6 0 0 0 4.61 1.9q3.04 0 4.73-2.1.6-.75.93-1.85.32-1.09.32-4.34z"/>
    <path fill="#591D73" d="M19.85 18v1.47q0 1.55-.15 2.43-.18 1.16-.93 3.15a13 13 0 0 1-1.6 3.26q-1.65 2.25-4.94 2.25-2.97 0-4.85-1.98A7.2 7.2 0 0 1 5.5 23.4q0-1.5.43-3.04.32-1.16 1.04-3.08.6-1.65 1.36-2.58a6 6 0 0 1 4.11-2.22v-.64q0-1.25-.5-2.07l-.32-.54a2.5 2.5 0 0 1-.4-1.32q0-.44.36-1.61l.4-1.3q.5-1.67 1-2.35.86-1.22 3.68-1.22h4.15q2.15 0 3.19.32 2.5.79 2.5 3.44 0 .78-.68 2.79l-.57 1.68q.5.78.5 1.75t-.5 2.29l-.61 1.61q-.21.6-.57 1.47-.65 1.2-2.72 1.21zm-.36-4.22h2.79q1.6 0 2.34-.57t.73-1.86q0-2.4-3.07-2.4h-2.8V6.81h.37q1.82 0 2.46.21l.65.22q.75.25 1.18.25.82 0 1.4-.63.57-.63.57-1.6 0-1.53-1.18-2.53-.61-.44-1.26-.61-.85-.25-2.86-.25h-4.08q-3.83 0-3.83 2.25 0 .69.43 1.33l.36.53q.43.64.43 2.08v4.65q2.5.82 2.5 3.25 0 2.11-2.5 2.94v.68q0 1.6-.93 1.6-.96 0-.96-1.1 0-1 1.43-1.43l.75-.25q.57-.22 1-.57.86-.7.86-1.9 0-1.29-1-2.17a3.7 3.7 0 0 0-2.5-.87q-2.37 0-4 1.91a7 7 0 0 0-1.62 4.67 7 7 0 0 0 1.75 5 6 6 0 0 0 4.61 1.9q3.04 0 4.73-2.1.6-.75.93-1.85.32-1.09.32-4.34z"/>
</svg>